<svg xmlns="http://www.w3.org/2000/svg" width="620" height="300" viewBox="0 0 620 300"><rect width="100%" height="100%" fill="white"/><text x="28" y="28" font-family="sans-serif" font-size="18">Japanese Blue title Poké Ball vertical path</text><line x1="50" y1="250" x2="580" y2="250" stroke="black"/><line x1="50" y1="55" x2="50" y2="250" stroke="black"/><polyline fill="none" stroke="black" stroke-width="2" points="80,176 130,156 180,146 230,136 280,126 330,136 380,146 430,156 480,176 530,206"/><circle cx="80" cy="176" r="3"/><circle cx="130" cy="156" r="3"/><circle cx="180" cy="146" r="3"/><circle cx="230" cy="136" r="3"/><circle cx="280" cy="126" r="3"/><circle cx="330" cy="136" r="3"/><circle cx="380" cy="146" r="3"/><circle cx="430" cy="156" r="3"/><circle cx="480" cy="176" r="3"/><circle cx="530" cy="206" r="3"/><text x="230" y="282" font-family="sans-serif" font-size="13">10 animation frames</text><text x="65" y="230" font-family="sans-serif" font-size="12">Y 97</text><text x="260" y="112" font-family="sans-serif" font-size="12">Y 92 peak</text><text x="515" y="225" font-family="sans-serif" font-size="12">Y 100</text></svg>